<svg width="21" height="16" viewBox="0 0 21 16" fill="none" xmlns="http://www.w3.org/2000/svg">
    <path d="M4.96849 0.538322C4.8855 0.453648 4.78664 0.386156 4.67756 0.339702C4.56848 0.293249 4.45131 0.268745 4.33276 0.26759C4.2142 0.266436 4.09658 0.288654 3.98661 0.332974C3.87665 0.377295 3.77649 0.442849 3.69187 0.525892C2.73466 1.47755 1.97535 2.60933 1.45776 3.85593C0.940177 5.10254 0.674553 6.43929 0.676216 7.78907C0.674664 9.19064 0.961192 10.5776 1.51802 11.8638C2.07484 13.15 2.89008 14.3081 3.91314 15.2661C4.08532 15.4252 4.31277 15.511 4.54718 15.5052C4.7816 15.4994 5.00452 15.4025 5.16862 15.235C5.56143 14.8422 5.51295 14.2169 5.13506 13.8552C4.31402 13.0727 3.66066 12.1315 3.21468 11.0887C2.76871 10.0459 2.53944 8.92325 2.5408 7.78907C2.5408 5.49439 3.46191 3.41351 4.95606 1.89947C5.31655 1.53277 5.35384 0.92367 4.96849 0.538322V0.538322ZM7.15751 2.72983C6.9938 2.56138 6.76999 2.4647 6.53512 2.46097C6.30026 2.45724 6.07349 2.54677 5.90451 2.70994C5.23196 3.37368 4.69811 4.16454 4.33404 5.03651C3.96998 5.90848 3.78295 6.84415 3.78386 7.78907C3.7824 8.78818 3.99115 9.77643 4.39655 10.6896C4.80195 11.6028 5.39493 12.4204 6.13696 13.0895C6.30757 13.2402 6.52963 13.3195 6.75713 13.3109C6.98462 13.3024 7.2001 13.2066 7.35889 13.0435C7.76661 12.6358 7.69078 11.9943 7.30792 11.6338C6.78312 11.1405 6.36507 10.5448 6.07964 9.88348C5.79421 9.22217 5.64745 8.50935 5.64844 7.78907C5.64844 6.35956 6.21652 5.06181 7.14011 4.10962C7.49562 3.74417 7.55405 3.12388 7.15751 2.72859V2.72983ZM14.0838 2.72983C14.2475 2.56138 14.4713 2.4647 14.7062 2.46097C14.9411 2.45724 15.1679 2.54677 15.3368 2.70994C16.0094 3.37368 16.5432 4.16454 16.9073 5.03651C17.2714 5.90848 17.4584 6.84415 17.4575 7.78907C17.4589 8.78818 17.2502 9.77643 16.8448 10.6896C16.4394 11.6028 15.8464 12.4204 15.1044 13.0895C14.9338 13.2402 14.7117 13.3195 14.4842 13.3109C14.2567 13.3024 14.0412 13.2066 13.8825 13.0435C13.4747 12.6358 13.5506 11.9943 13.9334 11.6338C14.4582 11.1405 14.8763 10.5448 15.1617 9.88348C15.4471 9.22217 15.5939 8.50935 15.5929 7.78907C15.5929 6.35956 15.0248 5.06181 14.1012 4.10962C13.7457 3.74417 13.6873 3.12388 14.0838 2.72859V2.72983ZM16.2728 0.539566C16.3558 0.454891 16.4547 0.387399 16.5638 0.340945C16.6729 0.294492 16.79 0.269988 16.9086 0.268834C17.0271 0.267679 17.1448 0.289897 17.2547 0.334217C17.3647 0.378538 17.4648 0.444092 17.5495 0.527135C18.5065 1.47865 19.2658 2.61022 19.7833 3.8566C20.3009 5.10298 20.5666 6.4395 20.5651 7.78907C20.5667 9.19064 20.2801 10.5776 19.7233 11.8638C19.1665 13.15 18.3513 14.3081 17.3282 15.2661C17.156 15.4252 16.9286 15.511 16.6942 15.5052C16.4597 15.4994 16.2368 15.4025 16.0727 15.235C15.6799 14.8422 15.7284 14.2169 16.1075 13.8552C16.9283 13.0726 17.5815 12.1313 18.0272 11.0885C18.473 10.0457 18.7021 8.92316 18.7005 7.78907C18.7005 5.49439 17.7794 3.41351 16.2853 1.89947C15.9248 1.53277 15.8875 0.92367 16.2728 0.538322V0.539566ZM10.6207 5.92449C10.1262 5.92449 9.65189 6.12093 9.30221 6.47061C8.95253 6.82029 8.75608 7.29455 8.75608 7.78907C8.75608 8.28359 8.95253 8.75786 9.30221 9.10753C9.65189 9.45721 10.1262 9.65366 10.6207 9.65366C11.1152 9.65366 11.5895 9.45721 11.9391 9.10753C12.2888 8.75786 12.4853 8.28359 12.4853 7.78907C12.4853 7.29455 12.2888 6.82029 11.9391 6.47061C11.5895 6.12093 11.1152 5.92449 10.6207 5.92449Z" fill="#F24E1E"/>
</svg>
