<svg width="18" height="13" viewBox="0 0 18 13" fill="none" xmlns="http://www.w3.org/2000/svg">
    <path fill-rule="evenodd" clip-rule="evenodd" d="M0 1.50049C0 2.05049 0.45 2.50049 1 2.50049H17C17.55 2.50049 18 2.05049 18 1.50049C18 0.950488 17.55 0.500488 17 0.500488H1C0.45 0.500488 0 0.950488 0 1.50049ZM8 12.5005H10C10.55 12.5005 11 12.0505 11 11.5005C11 10.9505 10.55 10.5005 10 10.5005H8C7.45 10.5005 7 10.9505 7 11.5005C7 12.0505 7.45 12.5005 8 12.5005ZM14 7.50049H4C3.45 7.50049 3 7.05049 3 6.50049C3 5.95049 3.45 5.50049 4 5.50049H14C14.55 5.50049 15 5.95049 15 6.50049C15 7.05049 14.55 7.50049 14 7.50049Z" fill="black"/>
</svg>
